<?xml version="1.0" standalone="no"?>
<!DOCTYPE svg PUBLIC "-//W3C//DTD SVG 20010904//EN"
 "http://www.w3.org/TR/2001/REC-SVG-20010904/DTD/svg10.dtd">
<svg version="1.0" xmlns="http://www.w3.org/2000/svg"
 width="318.000000pt" height="159.000000pt" viewBox="0 0 318.000000 159.000000"
 preserveAspectRatio="xMidYMid meet">
<metadata>
Created by potrace 1.16, written by Peter Selinger 2001-2019
</metadata>
<g transform="translate(0.000000,159.000000) scale(0.100000,-0.100000)"
fill="#000000" stroke="none">
<path d="M0 795 l0 -795 1590 0 1590 0 0 795 0 795 -1590 0 -1590 0 0 -795z
m1145 231 c56 -25 110 -81 132 -135 9 -20 15 -63 15 -96 1 -141 -112 -254
-252 -255 -71 0 -145 34 -191 88 l-35 41 -13 -34 c-7 -19 -28 -47 -48 -62 -35
-27 -42 -28 -170 -31 l-133 -4 0 251 0 251 131 0 c151 0 183 -11 216 -79 l19
-38 34 40 c70 83 195 110 295 63z m489 0 l48 -24 46 24 c55 29 130 32 187 5
91 -42 105 -82 105 -311 l0 -180 -32 0 c-63 0 -68 14 -68 197 0 161 0 164 -25
188 -17 18 -35 25 -64 25 -93 0 -101 -20 -101 -240 l0 -170 -32 0 c-63 0 -68
14 -68 197 0 161 0 164 -25 188 -17 18 -35 25 -64 25 -93 0 -101 -20 -101
-240 l0 -170 -33 0 c-64 0 -69 16 -65 212 3 170 4 176 30 215 53 81 168 107
262 59z m745 1 c31 -15 36 -16 43 -2 6 9 24 15 48 15 l40 0 0 -250 0 -250 -33
0 c-21 0 -41 8 -51 19 -16 18 -19 18 -49 3 -42 -21 -122 -27 -175 -12 -162 43
-214 309 -86 437 23 23 57 47 76 52 47 15 147 8 187 -12z m-2179 -77 l0 -90
40 0 40 0 0 90 0 90 70 0 70 0 0 -250 0 -250 -70 0 -70 0 0 95 0 95 -40 0 -40
0 0 -95 0 -96 -72 3 -73 3 -3 248 -2 247 75 0 75 0 0 -90z m2502 13 c29 -43
59 -78 67 -78 7 0 36 34 65 75 l51 75 58 3 c31 2 57 0 57 -3 0 -3 -34 -56 -75
-118 -41 -61 -75 -118 -75 -125 0 -7 32 -60 70 -118 94 -139 93 -134 34 -134
-27 0 -55 4 -61 8 -7 5 -34 39 -60 77 -27 39 -55 71 -64 73 -10 2 -30 -19 -54
-55 -61 -94 -72 -103 -127 -103 -26 0 -48 4 -48 10 0 5 34 59 75 120 41 61 75
116 75 123 0 7 -36 65 -81 130 l-80 117 60 0 60 0 53 -77z"/>
<path d="M994 910 c-41 -16 -74 -68 -74 -116 0 -37 6 -51 34 -82 31 -33 39
-37 84 -37 62 0 101 26 121 80 37 97 -67 195 -165 155z m119 -50 c48 -54 30
-127 -39 -156 -29 -12 -39 -12 -66 -1 -43 18 -59 38 -65 84 -4 29 0 44 17 66
44 55 106 58 153 7z"/>
<path d="M2195 928 c-75 -58 -74 -208 1 -267 24 -19 38 -22 86 -19 38 3 65 11
79 24 68 60 65 207 -6 262 -39 31 -121 31 -160 0z"/>
</g>
</svg>
