<svg version="1.1" id="Layer_1" xmlns="http://www.w3.org/2000/svg" xmlns:xlink="http://www.w3.org/1999/xlink" x="0px" y="0px"
	 width="100%" viewBox="0 0 318 159" enable-background="new 0 0 318 159" xml:space="preserve">
<path fill="#010101" opacity="1.000000" stroke="none" 
	d="
M255.000000,160.000000 
	C170.000015,160.000000 85.500038,160.000000 1.000045,160.000000 
	C1.000030,107.000031 1.000030,54.000065 1.000015,1.000074 
	C106.999939,1.000049 212.999878,1.000049 318.999878,1.000025 
	C318.999908,53.999928 318.999908,106.999855 318.999939,159.999893 
	C297.833344,160.000000 276.666656,160.000000 255.000000,160.000000 
M62.408150,105.925079 
	C74.670776,105.924568 79.226532,103.020164 82.431236,93.159912 
	C94.391586,107.622444 110.015678,110.277428 121.603394,99.816383 
	C132.807999,89.701225 133.583984,73.026230 123.234825,62.499546 
	C118.090721,57.267189 111.809273,54.812771 104.378151,54.948334 
	C94.549294,55.127644 87.760376,60.270367 82.394402,68.124664 
	C80.458023,61.828014 77.245522,56.686504 70.754913,56.130253 
	C62.536934,55.425968 54.212822,55.960056 45.798542,55.960056 
	C45.798542,72.716408 45.798542,89.143539 45.798542,105.925079 
	C51.168297,105.925079 56.301159,105.925079 62.408150,105.925079 
M137.532684,64.239365 
	C136.734009,67.928604 135.429718,71.592590 135.243958,75.312431 
	C134.879166,82.617859 135.134766,89.954361 135.137054,97.278000 
	C135.139572,105.303246 136.379639,106.404396 145.008896,105.561478 
	C145.008896,103.993004 145.008667,102.370857 145.008926,100.748711 
	C145.010330,91.927055 144.889420,83.103096 145.055008,74.284523 
	C145.171616,68.074753 148.827484,64.625557 154.728989,64.650543 
	C160.786377,64.676193 164.035690,67.973633 164.102890,74.388298 
	C164.183075,82.044029 164.133072,89.701141 164.135757,97.357658 
	C164.138565,105.318985 165.474411,106.482971 174.010757,105.496872 
	C174.010757,95.440460 173.972565,85.323952 174.023941,75.207886 
	C174.059204,68.262863 177.511475,64.590820 183.770706,64.655739 
	C190.005020,64.720398 193.069717,68.049728 193.110519,74.938675 
	C193.154907,82.428497 193.118423,89.918793 193.121323,97.408882 
	C193.124420,105.374077 194.458633,106.518791 203.010681,105.472900 
	C203.010681,104.235466 203.013885,102.940247 203.010162,101.645042 
	C202.980499,91.326164 203.386078,80.981133 202.769730,70.697357 
	C202.339233,63.514790 197.966354,58.358223 190.979813,56.094398 
	C183.043808,53.522926 175.620834,54.798935 169.233215,60.181602 
	C157.418839,51.949791 145.073105,53.380341 137.532684,64.239365 
M42.979355,93.485901 
	C42.979355,81.039757 42.979355,68.593613 42.979355,56.038620 
	C38.185467,56.038620 33.769978,56.038620 28.935055,56.038620 
	C28.935055,62.198154 28.935055,68.108612 28.935055,73.862541 
	C25.942659,73.862541 23.383682,73.862541 20.554058,73.862541 
	C20.554058,67.736938 20.554058,61.969116 20.554058,56.136948 
	C15.711855,56.136948 11.160027,56.136948 6.775737,56.136948 
	C6.775737,72.905052 6.775737,89.318779 6.775737,105.618835 
	C11.520248,105.618835 15.933846,105.618835 20.749222,105.618835 
	C20.749222,99.213501 20.749222,93.115601 20.749222,86.866608 
	C23.707451,86.866608 26.243267,86.866608 29.317522,86.866608 
	C29.317522,93.359093 29.317522,99.591125 29.317522,105.659180 
	C34.131531,105.659180 38.398186,105.659180 42.979355,105.659180 
	C42.979355,101.747879 42.979355,98.113060 42.979355,93.485901 
M250.551468,55.797585 
	C247.710785,56.361130 244.870117,56.924679 242.029434,57.488228 
	C228.861710,52.581356 217.688156,54.162304 210.660461,63.136822 
	C203.591721,72.163803 203.209076,88.909096 210.718460,97.587463 
	C213.679306,101.009239 218.192932,103.680771 222.523605,105.185745 
	C229.135162,107.483345 235.844177,105.992912 240.285431,103.242714 
	C244.847214,104.639412 248.027969,105.613281 252.007904,106.831841 
	C252.007904,95.497818 252.071655,85.393234 251.984848,75.289940 
	C251.929535,68.850395 251.651108,62.412769 250.551468,55.797585 
M296.492554,105.920639 
	C297.990295,105.920639 299.488068,105.920639 301.976898,105.920639 
	C296.972351,98.543816 292.840118,92.146408 288.375885,85.989700 
	C285.786407,82.418571 285.477386,79.499207 288.275208,75.754181 
	C292.891479,69.575089 296.966125,62.991364 301.399475,56.383751 
	C291.486267,54.743832 290.430450,55.162197 285.553375,62.335934 
	C284.153107,64.395592 282.775757,66.471283 281.347229,68.511154 
	C278.492462,72.587715 277.315216,72.630447 274.548981,68.693710 
	C272.927734,66.386467 271.427307,63.994717 269.847473,61.657936 
	C265.628174,55.417080 262.401031,54.335297 254.565033,56.738819 
	C259.070648,63.384140 263.448303,69.989815 267.993896,76.477821 
	C270.055023,79.419701 270.344086,81.926895 268.023132,84.987938 
	C264.722168,89.341476 261.836792,94.011986 258.813324,98.573227 
	C257.336823,100.800713 255.949493,103.087334 254.517517,105.353996 
	C262.550354,107.484024 267.740509,104.881683 271.072540,98.107590 
	C272.160248,95.896217 273.794373,93.953293 275.181641,91.889641 
	C276.992035,89.196602 278.817566,89.313469 280.592590,91.906181 
	C282.749420,95.056595 284.991425,98.158058 286.972229,101.417046 
	C288.996277,104.747215 291.704224,106.420418 296.492554,105.920639 
z"/>
<path fill="#FBFBFB" opacity="1.000000" stroke="none" 
	d="
M61.921085,105.925079 
	C56.301159,105.925079 51.168297,105.925079 45.798542,105.925079 
	C45.798542,89.143539 45.798542,72.716408 45.798542,55.960056 
	C54.212822,55.960056 62.536934,55.425968 70.754913,56.130253 
	C77.245522,56.686504 80.458023,61.828014 82.394402,68.124664 
	C87.760376,60.270367 94.549294,55.127644 104.378151,54.948334 
	C111.809273,54.812771 118.090721,57.267189 123.234825,62.499546 
	C133.583984,73.026230 132.807999,89.701225 121.603394,99.816383 
	C110.015678,110.277428 94.391586,107.622444 82.431236,93.159912 
	C79.226532,103.020164 74.670776,105.924568 61.921085,105.925079 
M101.488251,68.598808 
	C95.919113,70.643684 92.909927,74.547134 92.859215,80.560791 
	C92.813652,85.964737 95.544983,89.695366 100.249695,91.908905 
	C105.099190,94.190590 109.655624,93.129173 113.637512,89.748924 
	C117.739182,86.266991 118.908875,80.239662 116.650345,75.221138 
	C114.270874,69.933884 109.286598,67.528862 101.488251,68.598808 
M59.515175,75.044762 
	C61.343006,75.067360 63.401382,75.625854 64.935570,74.965858 
	C66.556358,74.268600 68.772209,72.366783 68.720901,71.070602 
	C68.665367,69.667580 66.508629,67.820419 64.867584,67.154564 
	C63.199631,66.477791 61.043137,67.005058 58.869389,67.005058 
	C58.869389,69.769630 58.869389,72.063416 59.515175,75.044762 
M69.007309,90.382889 
	C68.222900,83.103149 62.822384,86.813477 59.099609,85.829674 
	C59.099609,88.797096 59.099609,91.318954 59.099609,94.165741 
	C62.650272,93.326172 66.786621,95.983940 69.007309,90.382889 
z"/>
<path fill="#F9F9F9" opacity="1.000000" stroke="none" 
	d="
M137.736847,63.921791 
	C145.073105,53.380341 157.418839,51.949791 169.233215,60.181602 
	C175.620834,54.798935 183.043808,53.522926 190.979813,56.094398 
	C197.966354,58.358223 202.339233,63.514790 202.769730,70.697357 
	C203.386078,80.981133 202.980499,91.326164 203.010162,101.645042 
	C203.013885,102.940247 203.010681,104.235466 203.010681,105.472900 
	C194.458633,106.518791 193.124420,105.374077 193.121323,97.408882 
	C193.118423,89.918793 193.154907,82.428497 193.110519,74.938675 
	C193.069717,68.049728 190.005020,64.720398 183.770706,64.655739 
	C177.511475,64.590820 174.059204,68.262863 174.023941,75.207886 
	C173.972565,85.323952 174.010757,95.440460 174.010757,105.496872 
	C165.474411,106.482971 164.138565,105.318985 164.135757,97.357658 
	C164.133072,89.701141 164.183075,82.044029 164.102890,74.388298 
	C164.035690,67.973633 160.786377,64.676193 154.728989,64.650543 
	C148.827484,64.625557 145.171616,68.074753 145.055008,74.284523 
	C144.889420,83.103096 145.010330,91.927055 145.008926,100.748711 
	C145.008667,102.370857 145.008896,103.993004 145.008896,105.561478 
	C136.379639,106.404396 135.139572,105.303246 135.137054,97.278000 
	C135.134766,89.954361 134.879166,82.617859 135.243958,75.312431 
	C135.429718,71.592590 136.734009,67.928604 137.736847,63.921791 
z"/>
<path fill="#F5F5F5" opacity="1.000000" stroke="none" 
	d="
M42.979355,93.982071 
	C42.979355,98.113060 42.979355,101.747879 42.979355,105.659180 
	C38.398186,105.659180 34.131531,105.659180 29.317522,105.659180 
	C29.317522,99.591125 29.317522,93.359093 29.317522,86.866608 
	C26.243267,86.866608 23.707451,86.866608 20.749222,86.866608 
	C20.749222,93.115601 20.749222,99.213501 20.749222,105.618835 
	C15.933846,105.618835 11.520248,105.618835 6.775737,105.618835 
	C6.775737,89.318779 6.775737,72.905052 6.775737,56.136948 
	C11.160027,56.136948 15.711855,56.136948 20.554058,56.136948 
	C20.554058,61.969116 20.554058,67.736938 20.554058,73.862541 
	C23.383682,73.862541 25.942659,73.862541 28.935055,73.862541 
	C28.935055,68.108612 28.935055,62.198154 28.935055,56.038620 
	C33.769978,56.038620 38.185467,56.038620 42.979355,56.038620 
	C42.979355,68.593613 42.979355,81.039757 42.979355,93.982071 
z"/>
<path fill="#FAFAFA" opacity="1.000000" stroke="none" 
	d="
M251.012085,55.885933 
	C251.651108,62.412769 251.929535,68.850395 251.984848,75.289940 
	C252.071655,85.393234 252.007904,95.497818 252.007904,106.831841 
	C248.027969,105.613281 244.847214,104.639412 240.285431,103.242714 
	C235.844177,105.992912 229.135162,107.483345 222.523605,105.185745 
	C218.192932,103.680771 213.679306,101.009239 210.718460,97.587463 
	C203.209076,88.909096 203.591721,72.163803 210.660461,63.136822 
	C217.688156,54.162304 228.861710,52.581356 242.029434,57.488228 
	C244.870117,56.924679 247.710785,56.361130 251.012085,55.885933 
M215.133835,76.165092 
	C215.079605,78.488808 214.836487,80.826385 215.005905,83.133675 
	C215.552689,90.580200 220.269669,95.677261 226.924698,96.226334 
	C234.652023,96.863869 239.808578,93.015724 241.686249,85.210381 
	C243.855911,76.191193 239.616486,66.958496 232.425247,65.041580 
	C224.530426,62.937119 218.365570,66.659592 215.133835,76.165092 
z"/>
<path fill="#F8F8F8" opacity="1.000000" stroke="none" 
	d="
M296.062683,105.920593 
	C291.704224,106.420418 288.996277,104.747215 286.972229,101.417046 
	C284.991425,98.158058 282.749420,95.056595 280.592590,91.906181 
	C278.817566,89.313469 276.992035,89.196602 275.181641,91.889641 
	C273.794373,93.953293 272.160248,95.896217 271.072540,98.107590 
	C267.740509,104.881683 262.550354,107.484024 254.517517,105.353996 
	C255.949493,103.087334 257.336823,100.800713 258.813324,98.573227 
	C261.836792,94.011986 264.722168,89.341476 268.023132,84.987938 
	C270.344086,81.926895 270.055023,79.419701 267.993896,76.477821 
	C263.448303,69.989815 259.070648,63.384140 254.565033,56.738819 
	C262.401031,54.335297 265.628174,55.417080 269.847473,61.657936 
	C271.427307,63.994717 272.927734,66.386467 274.548981,68.693710 
	C277.315216,72.630447 278.492462,72.587715 281.347229,68.511154 
	C282.775757,66.471283 284.153107,64.395592 285.553375,62.335934 
	C290.430450,55.162197 291.486267,54.743832 301.399475,56.383751 
	C296.966125,62.991364 292.891479,69.575089 288.275208,75.754181 
	C285.477386,79.499207 285.786407,82.418571 288.375885,85.989700 
	C292.840118,92.146408 296.972351,98.543816 301.976898,105.920639 
	C299.488068,105.920639 297.990295,105.920639 296.062683,105.920593 
z"/>
<path fill="#141414" opacity="1.000000" stroke="none" 
	d="
M101.853996,68.428436 
	C109.286598,67.528862 114.270874,69.933884 116.650345,75.221138 
	C118.908875,80.239662 117.739182,86.266991 113.637512,89.748924 
	C109.655624,93.129173 105.099190,94.190590 100.249695,91.908905 
	C95.544983,89.695366 92.813652,85.964737 92.859215,80.560791 
	C92.909927,74.547134 95.919113,70.643684 101.853996,68.428436 
M107.844482,89.934975 
	C114.084908,86.901489 116.410034,82.181908 114.294037,76.843552 
	C112.376884,72.006874 107.401001,69.384872 102.669922,70.718315 
	C97.505127,72.174004 94.250557,77.120560 95.178482,82.104393 
	C96.188934,87.531494 100.710960,90.571266 107.844482,89.934975 
z"/>
<path fill="#020202" opacity="1.000000" stroke="none" 
	d="
M59.192284,74.700974 
	C58.869389,72.063416 58.869389,69.769630 58.869389,67.005058 
	C61.043137,67.005058 63.199631,66.477791 64.867584,67.154564 
	C66.508629,67.820419 68.665367,69.667580 68.720901,71.070602 
	C68.772209,72.366783 66.556358,74.268600 64.935570,74.965858 
	C63.401382,75.625854 61.343006,75.067360 59.192284,74.700974 
z"/>
<path fill="#010101" opacity="1.000000" stroke="none" 
	d="
M68.944405,90.802078 
	C66.786621,95.983940 62.650272,93.326172 59.099609,94.165741 
	C59.099609,91.318954 59.099609,88.797096 59.099609,85.829674 
	C62.822384,86.813477 68.222900,83.103149 68.944405,90.802078 
z"/>
<path fill="#030303" opacity="1.000000" stroke="none" 
	d="
M215.243591,75.757515 
	C218.365570,66.659592 224.530426,62.937119 232.425247,65.041580 
	C239.616486,66.958496 243.855911,76.191193 241.686249,85.210381 
	C239.808578,93.015724 234.652023,96.863869 226.924698,96.226334 
	C220.269669,95.677261 215.552689,90.580200 215.005905,83.133675 
	C214.836487,80.826385 215.079605,78.488808 215.243591,75.757515 
z"/>
<path fill="#F9F9F9" opacity="1.000000" stroke="none" 
	d="
M107.437874,90.003502 
	C100.710960,90.571266 96.188934,87.531494 95.178482,82.104393 
	C94.250557,77.120560 97.505127,72.174004 102.669922,70.718315 
	C107.401001,69.384872 112.376884,72.006874 114.294037,76.843552 
	C116.410034,82.181908 114.084908,86.901489 107.437874,90.003502 
z"/>
</svg>